# xmcd
#
# Track frame offsets: 
#        150
#        24342
#        49136
#        69568
#        85588
#        105292
#        125798
#        143530
#        160913
#        179227
#        200231
#        221361
#        241302
#        257322
#        277634
#        298251
#
# Disc length: 4320 seconds
#
# Revision: 1
# Processed by: cddbd v1.5.2PL0 Copyright (c) Steve Scherf et al.
# Submitted via: ExactAudioCopyFreeDBPlugin 1.0
#
DISCID=e410de10
DTITLE=群星 - 试机28号
DYEAR=2010
DGENRE=Acid
TTITLE0=从不放弃
TTITLE1=月光光
TTITLE2=老人与海
TTITLE3=爱与梦
TTITLE4=不应再犹豫
TTITLE5=念亲恩
TTITLE6=断肠梦
TTITLE7=雨中追忆
TTITLE8=倩影
TTITLE9=昨天今天下雨天
TTITLE10=有谁共鸣
TTITLE11=飘雪
TTITLE12=随想曲
TTITLE13=雨丝情愁
TTITLE14=堆积情感
TTITLE15=结他低泣时
EXTD=
EXTT0=
EXTT1=
EXTT2=
EXTT3=
EXTT4=
EXTT5=
EXTT6=
EXTT7=
EXTT8=
EXTT9=
EXTT10=
EXTT11=
EXTT12=
EXTT13=
EXTT14=
EXTT15=
PLAYORDER=
